<?xml version="1.0" encoding="UTF-8"?>
<svg id="_レイヤー_1" data-name="レイヤー 1" xmlns="http://www.w3.org/2000/svg" xmlns:xlink="http://www.w3.org/1999/xlink" viewBox="0 0 885 1257.22">
  <defs>
    <style>
      .cls-1 {
        font-size: 104.03px;
      }

      .cls-1, .cls-2, .cls-3 {
        fill: #fff;
        font-family: Elephant-Regular, Elephant;
      }

      .cls-4, .cls-5 {
        fill: none;
      }

      .cls-5 {
        clip-path: url(#clippath);
      }

      .cls-2 {
        font-size: 86.81px;
      }

      .cls-6 {
        fill: #7faf00;
      }

      .cls-3 {
        font-size: 85.96px;
      }
    </style>
    <clipPath id="clippath">
      <circle class="cls-4" cx="442.5" cy="814.72" r="258.5"/>
    </clipPath>
  </defs>
  <g class="cls-5">
    <image width="400" height="400" transform="translate(173 542.22) scale(1.35)" xlink:href="../../../../../../../../../../dwc/ポートフォリオ/images/439d19519920ed3fd391b182ec3c3ef8.png"/>
  </g>
  <image width="885" height="885" transform="translate(0 372.22)" xlink:href="../../../../../../../../../../dwc/ポートフォリオ/images/20-207666_starbucks-logo-png.png"/>
  <text class="cls-3" transform="translate(131.92 815.03) rotate(-86.57)"><tspan x="0" y="0"> </tspan></text>
  <text class="cls-3" transform="translate(133.12 794.51) rotate(-82.8)"><tspan x="0" y="0"> </tspan></text>
  <text class="cls-3" transform="translate(135.66 774.18) rotate(-79.02)"><tspan x="0" y="0"> </tspan></text>
  <text class="cls-3" transform="translate(139.53 754.02) rotate(-75.21)"><tspan x="0" y="0"> </tspan></text>
  <text class="cls-3" transform="translate(144.74 734.16) rotate(-71.4)"><tspan x="0" y="0"> </tspan></text>
  <text class="cls-3" transform="translate(151.25 714.72) rotate(-67.6)"><tspan x="0" y="0"> </tspan></text>
  <text class="cls-3" transform="translate(159.03 695.75) rotate(-63.8)"><tspan x="0" y="0"> </tspan></text>
  <text class="cls-3" transform="translate(168.07 677.32) rotate(-60.01)"><tspan x="0" y="0"> </tspan></text>
  <text class="cls-3" transform="translate(178.29 659.53) rotate(-56.24)"><tspan x="0" y="0"> </tspan></text>
  <text class="cls-3" transform="translate(189.67 642.45) rotate(-52.47)"><tspan x="0" y="0"> </tspan></text>
  <text class="cls-3" transform="translate(202.17 626.14) rotate(-48.7)"><tspan x="0" y="0"> </tspan></text>
  <text class="cls-3" transform="translate(215.69 610.69) rotate(-44.95)"><tspan x="0" y="0"> </tspan></text>
  <text class="cls-3" transform="translate(230.18 596.19) rotate(-41.19)"><tspan x="0" y="0"> </tspan></text>
  <text class="cls-3" transform="translate(245.62 582.63) rotate(-37.43)"><tspan x="0" y="0"> </tspan></text>
  <text class="cls-3" transform="translate(260.13 569.28) rotate(-29.49)"><tspan x="0" y="0">T</tspan></text>
  <text class="cls-3" transform="translate(317.13 536.07) rotate(-16.51)"><tspan x="0" y="0">O</tspan></text>
  <text class="cls-3" transform="translate(388.63 514.36) rotate(-2.6)"><tspan x="0" y="0">K</tspan></text>
  <text class="cls-3" transform="translate(465.66 511.39) rotate(9.96)"><tspan x="0" y="0">Y</tspan></text>
  <text class="cls-3" transform="translate(526.04 520.89) rotate(22.52)"><tspan x="0" y="0">O</tspan></text>
  <text class="cls-3" transform="translate(595.06 551.65) rotate(31.28)"><tspan x="0" y="0"> </tspan></text>
  <text class="cls-3" transform="translate(612.61 562.28) rotate(35.05)"><tspan x="0" y="0"> </tspan></text>
  <text class="cls-3" transform="translate(629.45 574.05) rotate(38.82)"><tspan x="0" y="0"> </tspan></text>
  <text class="cls-3" transform="translate(645.45 586.88) rotate(42.58)"><tspan x="0" y="0"> </tspan></text>
  <text class="cls-3" transform="translate(660.58 600.75) rotate(46.33)"><tspan x="0" y="0"> </tspan></text>
  <text class="cls-3" transform="translate(674.79 615.58) rotate(50.09)"><tspan x="0" y="0"> </tspan></text>
  <text class="cls-3" transform="translate(687.98 631.31) rotate(53.86)"><tspan x="0" y="0"> </tspan></text>
  <text class="cls-3" transform="translate(700.1 647.85) rotate(57.63)"><tspan x="0" y="0"> </tspan></text>
  <text class="cls-3" transform="translate(711.13 665.18) rotate(61.41)"><tspan x="0" y="0"> </tspan></text>
  <text class="cls-3" transform="translate(720.97 683.17) rotate(65.2)"><tspan x="0" y="0"> </tspan></text>
  <text class="cls-3" transform="translate(729.6 701.78) rotate(69)"><tspan x="0" y="0"> </tspan></text>
  <text class="cls-3" transform="translate(736.98 720.93) rotate(72.81)"><tspan x="0" y="0"> </tspan></text>
  <text class="cls-3" transform="translate(743.07 740.51) rotate(76.62)"><tspan x="0" y="0"> </tspan></text>
  <text class="cls-3" transform="translate(747.86 760.48) rotate(80.42)"><tspan x="0" y="0"> </tspan></text>
  <text class="cls-3" transform="translate(751.31 780.7) rotate(84.2)"><tspan x="0" y="0"> </tspan></text>
  <text class="cls-3" transform="translate(753.41 801.12) rotate(87.94)"><tspan x="0" y="0"> </tspan></text>
  <text class="cls-3" transform="translate(754.18 821.63) rotate(91.66)"><tspan x="0" y="0"> </tspan></text>
  <text class="cls-3" transform="translate(753.62 842.17) rotate(95.4)"><tspan x="0" y="0"> </tspan></text>
  <text class="cls-3" transform="translate(751.72 862.59) rotate(99.18)"><tspan x="0" y="0"> </tspan></text>
  <text class="cls-3" transform="translate(748.48 882.87) rotate(102.98)"><tspan x="0" y="0"> </tspan></text>
  <text class="cls-1" transform="translate(65.79 811.66) rotate(88.5)"><tspan x="0" y="0"> </tspan></text>
  <text class="cls-1" transform="translate(66.7 841.23) rotate(84.04)"><tspan x="0" y="0"> </tspan></text>
  <text class="cls-1" transform="translate(69.92 870.69) rotate(79.52)"><tspan x="0" y="0"> </tspan></text>
  <text class="cls-1" transform="translate(75.46 899.84) rotate(74.98)"><tspan x="0" y="0"> </tspan></text>
  <text class="cls-1" transform="translate(83.29 928.45) rotate(70.43)"><tspan x="0" y="0"> </tspan></text>
  <text class="cls-1" transform="translate(93.36 956.37) rotate(65.88)"><tspan x="0" y="0"> </tspan></text>
  <text class="cls-1" transform="translate(105.6 983.35) rotate(61.36)"><tspan x="0" y="0"> </tspan></text>
  <text class="cls-1" transform="translate(119.94 1009.3) rotate(56.85)"><tspan x="0" y="0"> </tspan></text>
  <text class="cls-2" transform="translate(141.67 1033.76) rotate(48)"><tspan x="0" y="0">B</tspan></text>
  <text class="cls-2" transform="translate(199.97 1097.03) rotate(34.63)"><tspan x="0" y="0">O</tspan></text>
  <text class="cls-2" transform="translate(273.38 1146.32) rotate(20.95)"><tspan x="0" y="0">O</tspan></text>
  <text class="cls-2" transform="translate(356.51 1176.98) rotate(7.02)"><tspan x="0" y="0">K</tspan></text>
  <text class="cls-2" transform="translate(443.11 1184.88) rotate(-1.76)"><tspan x="0" y="0"> </tspan></text>
  <text class="cls-2" transform="translate(467.33 1184.05) rotate(-5.47)"><tspan x="0" y="0"> </tspan></text>
  <text class="cls-2" transform="translate(494.66 1182.68) rotate(-13.35)"><tspan x="0" y="0">C</tspan></text>
  <text class="cls-2" transform="translate(569.44 1163.86) rotate(-25.04)"><tspan x="0" y="0">A</tspan></text>
  <text class="cls-2" transform="translate(635.38 1132.31) rotate(-36.57)"><tspan x="0" y="0">F</tspan></text>
  <text class="cls-2" transform="translate(696.78 1086.06) rotate(-48.93)"><tspan x="0" y="0">E</tspan></text>
  <text/>
  <image width="512" height="512" transform="translate(359 631.22) scale(.33)" xlink:href="../../../../../../../../../../dwc/ポートフォリオ/images/crown.png"/>
  <polygon class="cls-6" points="447.69 583.22 462.02 612.26 494.08 616.92 470.88 639.53 476.36 671.45 447.69 656.38 419.02 671.45 424.5 639.53 401.3 616.92 433.36 612.26 447.69 583.22"/>
</svg>